# xmcd CD database file
# 
# Track frame offsets:
# 	150
# 	584
# 	10388
# 	12922
# 	25822
# 	40277
# 	41205
# 	54916
# 	69308
# 	70668
# 	92869
# 	94705
# 	109007
# 	120925
# 	122688
# 	137191
# 	153722
# 	157198
# 	165836
# 	179119
# 	191091
# 	193886
# 	207464
# 	209934
# 	227870
# 	229090
# 	242310
# 	255350
# 	298024
# 	299518
# 	315533
# 
# Disc length: 4249 seconds
# 
# Submitted via: Nero 5.5.9.0
# 
# Revision: 0
# Processed by: cddbd v1.4PL0 Copyright (c) Steve Scherf et al.
#
DISCID=c110971f
DTITLE=Steven Fromholz - Live At Anderson Fair
DYEAR=1900
DGENRE=
TTITLE0=Introduction
TTITLE1=If I Couldn't Get To The River
TTITLE2=Unkn
TTITLE3=Dear Darcie
TTITLE4=Saddest Man In Texas
TTITLE5=Unkn
TTITLE6=I'd Have To Be Crazy
TTITLE7=Singin' The Dinosaur Blues
TTITLE8=Unkn
TTITLE9=The Man With The Big Hat
TTITLE10=Unkn
TTITLE11=Lover's Waltz
TTITLE12=Makin' My Getaway
TTITLE13=Unkn
TTITLE14=Fool's Gold
TTITLE15=Fairest Of Fair Weather Friends
TTITLE16=Unkn
TTITLE17=No Lonesome Time
TTITLE18=Isla Mujeres
TTITLE19=So Far, No Good
TTITLE20=Unkn
TTITLE21=Late Nite Neon Shadows
TTITLE22=Unkn
TTITLE23=The Old Fart In The Mirror
TTITLE24=Unkn
TTITLE25=Rockin' On The River
TTITLE26=Blue Would I Be Without You
TTITLE27=Texas Trilogy
TTITLE28=Unkn
TTITLE29=The Lovin' Of The Game
TTITLE30=Unkn
EXTD=
EXTT0=
EXTT1=
EXTT2=
EXTT3=
EXTT4=
EXTT5=
EXTT6=
EXTT7=
EXTT8=
EXTT9=
EXTT10=
EXTT11=
EXTT12=
EXTT13=
EXTT14=
EXTT15=
EXTT16=
EXTT17=
EXTT18=
EXTT19=
EXTT20=
EXTT21=
EXTT22=
EXTT23=
EXTT24=
EXTT25=
EXTT26=
EXTT27=
EXTT28=
EXTT29=
EXTT30=
PLAYORDER=
